<svg width="1600" height="900" viewBox="0 0 1600 900" fill="none" xmlns="http://www.w3.org/2000/svg">
  <defs>
    <linearGradient id="bg" x1="220" y1="120" x2="1380" y2="780" gradientUnits="userSpaceOnUse">
      <stop stop-color="#121826"/>
      <stop offset="1" stop-color="#25324A"/>
    </linearGradient>
    <linearGradient id="desk" x1="0" y1="560" x2="1600" y2="900" gradientUnits="userSpaceOnUse">
      <stop stop-color="#463228"/>
      <stop offset="1" stop-color="#241814"/>
    </linearGradient>
    <linearGradient id="paper" x1="0" y1="0" x2="1" y2="1">
      <stop stop-color="#FFF8EC"/>
      <stop offset="1" stop-color="#EEDFC9"/>
    </linearGradient>
    <linearGradient id="screen" x1="0" y1="0" x2="1" y2="1">
      <stop stop-color="#172033"/>
      <stop offset="1" stop-color="#0F172A"/>
    </linearGradient>
    <filter id="shadow" x="-20%" y="-20%" width="140%" height="140%">
      <feDropShadow dx="0" dy="18" stdDeviation="22" flood-color="#020617" flood-opacity="0.34"/>
    </filter>
    <filter id="soft" x="-20%" y="-20%" width="140%" height="140%">
      <feDropShadow dx="0" dy="10" stdDeviation="18" flood-color="#F59E0B" flood-opacity="0.16"/>
    </filter>
  </defs>

  <rect width="1600" height="900" fill="url(#bg)"/>
  <circle cx="1248" cy="176" r="124" fill="#F8CFA2" fill-opacity="0.16"/>
  <circle cx="1248" cy="176" r="70" fill="#FFF4D6" fill-opacity="0.1"/>

  <rect y="578" width="1600" height="322" fill="url(#desk)"/>
  <rect x="0" y="560" width="1600" height="18" fill="#765646" fill-opacity="0.45"/>

  <g filter="url(#shadow)">
    <rect x="250" y="190" width="480" height="300" rx="26" fill="url(#screen)"/>
    <rect x="292" y="236" width="206" height="18" rx="9" fill="#CBD5E1" fill-opacity="0.88"/>
    <rect x="292" y="278" width="304" height="12" rx="6" fill="#94A3B8" fill-opacity="0.72"/>
    <rect x="292" y="308" width="258" height="12" rx="6" fill="#64748B" fill-opacity="0.76"/>
    <rect x="292" y="338" width="332" height="12" rx="6" fill="#64748B" fill-opacity="0.62"/>
    <rect x="292" y="392" width="144" height="54" rx="14" fill="#F59E0B" fill-opacity="0.9"/>
    <rect x="466" y="392" width="144" height="54" rx="14" fill="#334155"/>
  </g>

  <g filter="url(#shadow)">
    <rect x="700" y="220" width="410" height="500" rx="26" transform="rotate(-4 700 220)" fill="url(#paper)"/>
    <rect x="754" y="278" width="212" height="18" rx="9" transform="rotate(-4 754 278)" fill="#A16207" fill-opacity="0.42"/>
    <rect x="754" y="324" width="292" height="14" rx="7" transform="rotate(-4 754 324)" fill="#C9BAA5"/>
    <rect x="754" y="360" width="248" height="14" rx="7" transform="rotate(-4 754 360)" fill="#C9BAA5"/>
    <rect x="754" y="396" width="314" height="14" rx="7" transform="rotate(-4 754 396)" fill="#C9BAA5"/>
    <rect x="754" y="432" width="222" height="14" rx="7" transform="rotate(-4 754 432)" fill="#C9BAA5"/>
    <rect x="754" y="468" width="270" height="14" rx="7" transform="rotate(-4 754 468)" fill="#C9BAA5"/>
    <rect x="754" y="534" width="168" height="54" rx="12" transform="rotate(-4 754 534)" fill="#E0E7FF"/>
    <path d="M790 552L882 546" stroke="#4F46E5" stroke-width="8" stroke-linecap="round"/>
    <path d="M790 576L930 566" stroke="#4F46E5" stroke-width="8" stroke-linecap="round" opacity="0.7"/>
  </g>

  <g filter="url(#soft)">
    <rect x="1090" y="352" width="248" height="170" rx="22" transform="rotate(8 1090 352)" fill="#FDE68A"/>
    <rect x="1134" y="398" width="94" height="14" rx="7" transform="rotate(8 1134 398)" fill="#92400E" fill-opacity="0.72"/>
    <rect x="1134" y="430" width="132" height="12" rx="6" transform="rotate(8 1134 430)" fill="#B45309" fill-opacity="0.5"/>
    <rect x="1134" y="460" width="108" height="12" rx="6" transform="rotate(8 1134 460)" fill="#B45309" fill-opacity="0.32"/>
  </g>

  <g filter="url(#shadow)">
    <rect x="286" y="522" width="196" height="114" rx="18" transform="rotate(-10 286 522)" fill="#FBCFE8"/>
    <text x="328" y="580" transform="rotate(-10 328 580)" fill="#9D174D" font-family="Pretendard, Arial, sans-serif" font-size="34" font-weight="700">e7d964e</text>
  </g>
  <g filter="url(#shadow)">
    <rect x="1116" y="582" width="204" height="118" rx="18" transform="rotate(-6 1116 582)" fill="#BFDBFE"/>
    <text x="1156" y="646" transform="rotate(-6 1156 646)" fill="#1D4ED8" font-family="Pretendard, Arial, sans-serif" font-size="34" font-weight="700">88c5dbe</text>
  </g>

  <ellipse cx="868" cy="742" rx="322" ry="36" fill="#020617" fill-opacity="0.22"/>
  <ellipse cx="1228" cy="542" rx="156" ry="24" fill="#020617" fill-opacity="0.14"/>

  <g>
    <circle cx="1342" cy="646" r="20" fill="#F59E0B" fill-opacity="0.92"/>
    <circle cx="1386" cy="646" r="20" fill="#60A5FA" fill-opacity="0.92"/>
    <circle cx="1430" cy="646" r="20" fill="#F472B6" fill-opacity="0.92"/>
  </g>
</svg>
