<svg width="1600" height="900" viewBox="0 0 1600 900" fill="none" xmlns="http://www.w3.org/2000/svg">
  <defs>
    <linearGradient id="bg" x1="220" y1="120" x2="1380" y2="780" gradientUnits="userSpaceOnUse">
      <stop stop-color="#0F172A"/>
      <stop offset="1" stop-color="#1E293B"/>
    </linearGradient>
    <linearGradient id="desk" x1="0" y1="560" x2="1600" y2="900" gradientUnits="userSpaceOnUse">
      <stop stop-color="#3F2E27"/>
      <stop offset="1" stop-color="#241816"/>
    </linearGradient>
    <linearGradient id="paper" x1="0" y1="0" x2="1" y2="1">
      <stop stop-color="#FFF8ED"/>
      <stop offset="1" stop-color="#F3E7D4"/>
    </linearGradient>
    <linearGradient id="card" x1="0" y1="0" x2="1" y2="1">
      <stop stop-color="#D6E4FF"/>
      <stop offset="1" stop-color="#A8C4FF"/>
    </linearGradient>
    <filter id="shadow" x="-20%" y="-20%" width="140%" height="140%">
      <feDropShadow dx="0" dy="18" stdDeviation="24" flood-color="#020617" flood-opacity="0.35"/>
    </filter>
    <filter id="soft" x="-20%" y="-20%" width="140%" height="140%">
      <feDropShadow dx="0" dy="10" stdDeviation="18" flood-color="#7C3AED" flood-opacity="0.18"/>
    </filter>
  </defs>

  <rect width="1600" height="900" fill="url(#bg)"/>
  <circle cx="1260" cy="172" r="122" fill="#F8CFA2" fill-opacity="0.18"/>
  <circle cx="1260" cy="172" r="76" fill="#FFF4D8" fill-opacity="0.12"/>

  <rect y="580" width="1600" height="320" fill="url(#desk)"/>
  <rect x="0" y="560" width="1600" height="18" fill="#6E4E3F" fill-opacity="0.45"/>

  <g opacity="0.28">
    <rect x="200" y="118" width="260" height="150" rx="18" fill="#1E293B" stroke="#CBD5E1" stroke-opacity="0.12"/>
    <path d="M230 162H430" stroke="#E2E8F0" stroke-opacity="0.18" stroke-width="10" stroke-linecap="round"/>
    <path d="M230 198H380" stroke="#E2E8F0" stroke-opacity="0.14" stroke-width="10" stroke-linecap="round"/>
    <path d="M230 234H412" stroke="#E2E8F0" stroke-opacity="0.14" stroke-width="10" stroke-linecap="round"/>
  </g>

  <g filter="url(#shadow)">
    <rect x="500" y="220" width="560" height="430" rx="24" transform="rotate(-5 500 220)" fill="url(#paper)"/>
    <rect x="548" y="272" width="360" height="18" rx="9" transform="rotate(-5 548 272)" fill="#C7B59B" fill-opacity="0.9"/>
    <rect x="548" y="318" width="430" height="14" rx="7" transform="rotate(-5 548 318)" fill="#D6C8B7"/>
    <rect x="548" y="354" width="386" height="14" rx="7" transform="rotate(-5 548 354)" fill="#D6C8B7"/>
    <rect x="548" y="390" width="404" height="14" rx="7" transform="rotate(-5 548 390)" fill="#D6C8B7"/>
    <rect x="548" y="426" width="330" height="14" rx="7" transform="rotate(-5 548 426)" fill="#D6C8B7"/>
    <rect x="548" y="462" width="368" height="14" rx="7" transform="rotate(-5 548 462)" fill="#D6C8B7"/>
    <rect x="548" y="498" width="286" height="14" rx="7" transform="rotate(-5 548 498)" fill="#D6C8B7"/>
  </g>

  <g filter="url(#soft)">
    <rect x="1010" y="300" width="230" height="160" rx="20" transform="rotate(8 1010 300)" fill="url(#card)"/>
    <circle cx="1090" cy="356" r="18" fill="#7C3AED" fill-opacity="0.85"/>
    <rect x="1128" y="338" width="72" height="12" rx="6" fill="#3657A8" fill-opacity="0.8"/>
    <rect x="1128" y="366" width="92" height="12" rx="6" fill="#3657A8" fill-opacity="0.55"/>
    <rect x="1052" y="406" width="148" height="10" rx="5" fill="#3657A8" fill-opacity="0.32"/>
  </g>

  <g filter="url(#shadow)">
    <rect x="290" y="362" width="210" height="140" rx="18" transform="rotate(-11 290 362)" fill="#F8D7DA"/>
    <rect x="332" y="404" width="112" height="12" rx="6" transform="rotate(-11 332 404)" fill="#9F4A58" fill-opacity="0.72"/>
    <rect x="332" y="434" width="90" height="12" rx="6" transform="rotate(-11 332 434)" fill="#9F4A58" fill-opacity="0.42"/>
  </g>

  <g opacity="0.9">
    <ellipse cx="798" cy="666" rx="310" ry="38" fill="#020617" fill-opacity="0.22"/>
    <ellipse cx="1128" cy="488" rx="150" ry="24" fill="#020617" fill-opacity="0.16"/>
  </g>

  <g>
    <circle cx="1340" cy="640" r="20" fill="#F59E0B" fill-opacity="0.9"/>
    <circle cx="1384" cy="640" r="20" fill="#38BDF8" fill-opacity="0.9"/>
    <circle cx="1428" cy="640" r="20" fill="#F472B6" fill-opacity="0.9"/>
  </g>
</svg>
