<svg width="1600" height="900" viewBox="0 0 1600 900" fill="none" xmlns="http://www.w3.org/2000/svg">
  <defs>
    <linearGradient id="bg" x1="180" y1="90" x2="1400" y2="840" gradientUnits="userSpaceOnUse">
      <stop stop-color="#1C2333"/>
      <stop offset="1" stop-color="#0D1018"/>
    </linearGradient>
    <linearGradient id="desk" x1="239" y1="620" x2="1340" y2="860" gradientUnits="userSpaceOnUse">
      <stop stop-color="#5B463A"/>
      <stop offset="1" stop-color="#2A211E"/>
    </linearGradient>
    <linearGradient id="paper" x1="580" y1="240" x2="1015" y2="735" gradientUnits="userSpaceOnUse">
      <stop stop-color="#FFF7EA"/>
      <stop offset="1" stop-color="#F0E4D1"/>
    </linearGradient>
    <radialGradient id="lamp" cx="0" cy="0" r="1" gradientUnits="userSpaceOnUse" gradientTransform="translate(815 235) rotate(90) scale(395 575)">
      <stop stop-color="#FFE6A8" stop-opacity="0.48"/>
      <stop offset="1" stop-color="#FFE6A8" stop-opacity="0"/>
    </radialGradient>
    <filter id="shadow" x="430" y="173" width="750" height="645" filterUnits="userSpaceOnUse" color-interpolation-filters="sRGB">
      <feDropShadow dx="0" dy="24" stdDeviation="28" flood-color="#000000" flood-opacity="0.28"/>
    </filter>
  </defs>

  <rect width="1600" height="900" fill="url(#bg)"/>
  <rect x="0" y="0" width="1600" height="900" fill="url(#lamp)"/>
  <rect x="170" y="610" width="1260" height="220" rx="26" fill="url(#desk)"/>

  <g opacity="0.92">
    <rect x="240" y="510" width="250" height="150" rx="18" transform="rotate(-8 240 510)" fill="#3B4457"/>
    <rect x="262" y="535" width="156" height="12" rx="6" transform="rotate(-8 262 535)" fill="#7EA7C9" fill-opacity="0.75"/>
    <rect x="262" y="566" width="182" height="10" rx="5" transform="rotate(-8 262 566)" fill="#D6E4F0" fill-opacity="0.54"/>
    <rect x="262" y="593" width="148" height="10" rx="5" transform="rotate(-8 262 593)" fill="#D6E4F0" fill-opacity="0.4"/>
  </g>

  <g opacity="0.9">
    <rect x="1110" y="520" width="250" height="150" rx="18" transform="rotate(7 1110 520)" fill="#414D66"/>
    <rect x="1134" y="547" width="136" height="12" rx="6" transform="rotate(7 1134 547)" fill="#F5C97A" fill-opacity="0.78"/>
    <rect x="1134" y="579" width="182" height="10" rx="5" transform="rotate(7 1134 579)" fill="#E7EEF7" fill-opacity="0.54"/>
    <rect x="1134" y="606" width="161" height="10" rx="5" transform="rotate(7 1134 606)" fill="#E7EEF7" fill-opacity="0.4"/>
  </g>

  <g filter="url(#shadow)">
    <rect x="518" y="205" width="564" height="560" rx="26" fill="url(#paper)"/>
    <rect x="560" y="275" width="230" height="18" rx="9" fill="#B67854" fill-opacity="0.9"/>
    <rect x="560" y="326" width="430" height="12" rx="6" fill="#C8B59B"/>
    <rect x="560" y="360" width="390" height="12" rx="6" fill="#D3C4AF"/>
    <rect x="560" y="394" width="415" height="12" rx="6" fill="#D3C4AF"/>
    <rect x="560" y="428" width="360" height="12" rx="6" fill="#D3C4AF"/>
    <rect x="560" y="498" width="160" height="10" rx="5" fill="#A18A73"/>
    <rect x="560" y="528" width="420" height="10" rx="5" fill="#D3C4AF"/>
    <rect x="560" y="556" width="375" height="10" rx="5" fill="#D3C4AF"/>
    <rect x="560" y="584" width="398" height="10" rx="5" fill="#D3C4AF"/>
    <rect x="560" y="612" width="344" height="10" rx="5" fill="#D3C4AF"/>
    <rect x="560" y="666" width="214" height="10" rx="5" fill="#A18A73"/>
  </g>

  <circle cx="1270" cy="250" r="72" fill="#EFBC63" fill-opacity="0.18"/>
  <rect x="1210" y="190" width="120" height="120" rx="60" fill="#F2C979" fill-opacity="0.22"/>
  <path d="M1269 202C1269 202 1288 228 1306 253" stroke="#FFE7B7" stroke-width="6" stroke-linecap="round"/>

  <rect x="725" y="147" width="150" height="66" rx="18" fill="#F2C979"/>
  <rect x="745" y="167" width="110" height="8" rx="4" fill="#8C5D31" fill-opacity="0.42"/>
  <rect x="745" y="186" width="75" height="8" rx="4" fill="#8C5D31" fill-opacity="0.28"/>

  <text x="800" y="820" text-anchor="middle" fill="#F7EBD8" font-size="42" font-family="Pretendard, Apple SD Gothic Neo, sans-serif" letter-spacing="-0.03em">흔적이 얇은 밤에도, 오늘을 과장하지 않기로 한 장면</text>
</svg>