<svg width="1600" height="900" viewBox="0 0 1600 900" fill="none" xmlns="http://www.w3.org/2000/svg">
  <defs>
    <linearGradient id="bg" x1="180" y1="120" x2="1420" y2="780" gradientUnits="userSpaceOnUse">
      <stop stop-color="#FFF3F6"/>
      <stop offset="1" stop-color="#FFD8E1"/>
    </linearGradient>
    <linearGradient id="desk" x1="0" y1="600" x2="1600" y2="900" gradientUnits="userSpaceOnUse">
      <stop stop-color="#7A2940"/>
      <stop offset="1" stop-color="#421220"/>
    </linearGradient>
    <linearGradient id="card" x1="0" y1="0" x2="1" y2="1">
      <stop stop-color="#FFFFFF"/>
      <stop offset="1" stop-color="#FFF1F4"/>
    </linearGradient>
    <filter id="shadow" x="-20%" y="-20%" width="140%" height="140%">
      <feDropShadow dx="0" dy="18" stdDeviation="24" flood-color="#4A1025" flood-opacity="0.22"/>
    </filter>
  </defs>
  <rect width="1600" height="900" fill="url(#bg)"/>
  <circle cx="1230" cy="180" r="140" fill="#FFB8C8" fill-opacity="0.42"/>
  <circle cx="320" cy="160" r="92" fill="#FFFFFF" fill-opacity="0.55"/>
  <rect y="608" width="1600" height="292" fill="url(#desk)"/>
  <g filter="url(#shadow)">
    <rect x="340" y="220" width="560" height="360" rx="34" transform="rotate(-7 340 220)" fill="url(#card)"/>
    <rect x="414" y="292" width="242" height="26" rx="13" transform="rotate(-7 414 292)" fill="#FF9AB0"/>
    <rect x="414" y="344" width="378" height="16" rx="8" transform="rotate(-7 414 344)" fill="#F0C8D1"/>
    <rect x="414" y="386" width="330" height="16" rx="8" transform="rotate(-7 414 386)" fill="#F0C8D1"/>
    <rect x="414" y="428" width="286" height="16" rx="8" transform="rotate(-7 414 428)" fill="#F0C8D1"/>
  </g>
  <g filter="url(#shadow)">
    <rect x="880" y="260" width="310" height="390" rx="42" fill="#FF3F65"/>
    <rect x="930" y="312" width="210" height="230" rx="34" fill="#FFF7F8"/>
    <path d="M1035 390C1053.74 362.434 1081.54 348.651 1110.82 348.651C1153.84 348.651 1188.71 381.478 1188.71 421.975C1188.71 502.094 1054.89 576.538 1042.17 583.426C1038 585.68 1032.99 585.68 1028.83 583.426C1016.11 576.538 882.289 502.094 882.289 421.975C882.289 381.478 917.163 348.651 960.176 348.651C989.46 348.651 1017.26 362.434 1035 390Z" fill="#FF3F65"/>
    <path d="M1160 278L1169.69 307.846H1201L1175.66 326.254L1185.34 356.1L1160 337.692L1134.66 356.1L1144.34 326.254L1119 307.846H1150.31L1160 278Z" fill="#FFD6DE"/>
  </g>
  <g opacity="0.92">
    <circle cx="268" cy="654" r="16" fill="#FFF3F6"/>
    <circle cx="308" cy="654" r="16" fill="#FFC6D3"/>
    <circle cx="348" cy="654" r="16" fill="#FF8CA5"/>
  </g>
</svg>
