<svg xmlns="http://www.w3.org/2000/svg" viewBox="0 0 1600 900" role="img" aria-labelledby="title desc">
  <title id="title">2026년 4월 28일 업무일지 정리 장면</title>
  <desc id="desc">늦은 밤, 모니터와 메모 카드가 놓인 책상 위에서 하루의 worklog를 다정하게 정리하는 까베밍 월드의 장면</desc>
  <defs>
    <linearGradient id="bg" x1="0" y1="0" x2="1" y2="1">
      <stop offset="0%" stop-color="#1f2940"/>
      <stop offset="55%" stop-color="#2f4760"/>
      <stop offset="100%" stop-color="#c27c4a"/>
    </linearGradient>
    <linearGradient id="desk" x1="0" y1="0" x2="0" y2="1">
      <stop offset="0%" stop-color="#8f5f3f"/>
      <stop offset="100%" stop-color="#6e4730"/>
    </linearGradient>
    <linearGradient id="screen" x1="0" y1="0" x2="0" y2="1">
      <stop offset="0%" stop-color="#183447"/>
      <stop offset="100%" stop-color="#0f2230"/>
    </linearGradient>
    <filter id="shadow" x="-20%" y="-20%" width="140%" height="140%">
      <feDropShadow dx="0" dy="16" stdDeviation="18" flood-color="#10202c" flood-opacity="0.32"/>
    </filter>
    <filter id="glow" x="-30%" y="-30%" width="160%" height="160%">
      <feGaussianBlur stdDeviation="22"/>
    </filter>
  </defs>

  <rect width="1600" height="900" fill="url(#bg)"/>
  <circle cx="1280" cy="180" r="170" fill="#ffd7a0" opacity="0.18" filter="url(#glow)"/>
  <rect y="590" width="1600" height="310" fill="url(#desk)"/>

  <rect x="345" y="168" width="910" height="500" rx="28" fill="#243648" opacity="0.28" filter="url(#shadow)"/>
  <rect x="385" y="130" width="830" height="470" rx="28" fill="#1a2633"/>
  <rect x="418" y="162" width="764" height="406" rx="20" fill="url(#screen)"/>

  <rect x="470" y="212" width="190" height="28" rx="14" fill="#7ea2a8" opacity="0.28"/>
  <rect x="470" y="262" width="660" height="18" rx="9" fill="#f7ecd5" opacity="0.95"/>
  <rect x="470" y="302" width="540" height="14" rx="7" fill="#d2d7cf" opacity="0.88"/>
  <rect x="470" y="332" width="590" height="14" rx="7" fill="#d2d7cf" opacity="0.78"/>
  <rect x="470" y="382" width="300" height="16" rx="8" fill="#d9b28b" opacity="0.92"/>
  <rect x="470" y="418" width="610" height="12" rx="6" fill="#cdd7da" opacity="0.8"/>
  <rect x="470" y="446" width="570" height="12" rx="6" fill="#cdd7da" opacity="0.74"/>
  <rect x="470" y="474" width="490" height="12" rx="6" fill="#cdd7da" opacity="0.7"/>

  <rect x="1040" y="228" width="100" height="124" rx="14" fill="#f4e5c7"/>
  <rect x="1060" y="250" width="60" height="10" rx="5" fill="#c18157"/>
  <rect x="1060" y="274" width="44" height="36" rx="8" fill="#5c7a72"/>
  <rect x="1060" y="322" width="56" height="10" rx="5" fill="#cdbda2"/>

  <rect x="612" y="600" width="374" height="230" rx="18" fill="#f4e5c7" transform="rotate(-6 612 600)" filter="url(#shadow)"/>
  <rect x="650" y="644" width="214" height="16" rx="8" fill="#c38259" opacity="0.85" transform="rotate(-6 650 644)"/>
  <rect x="650" y="684" width="262" height="12" rx="6" fill="#bcae93" opacity="0.9" transform="rotate(-6 650 684)"/>
  <rect x="650" y="714" width="238" height="12" rx="6" fill="#bcae93" opacity="0.85" transform="rotate(-6 650 714)"/>
  <rect x="650" y="744" width="196" height="12" rx="6" fill="#bcae93" opacity="0.8" transform="rotate(-6 650 744)"/>

  <rect x="970" y="632" width="210" height="150" rx="16" fill="#f7ecd7" transform="rotate(7 970 632)" filter="url(#shadow)"/>
  <rect x="1006" y="672" width="100" height="10" rx="5" fill="#5a7f77" opacity="0.95" transform="rotate(7 1006 672)"/>
  <rect x="1006" y="700" width="128" height="10" rx="5" fill="#c4b69d" opacity="0.88" transform="rotate(7 1006 700)"/>
  <rect x="1006" y="728" width="90" height="10" rx="5" fill="#c4b69d" opacity="0.8" transform="rotate(7 1006 728)"/>

  <g transform="translate(260 625)">
    <ellipse cx="0" cy="158" rx="82" ry="58" fill="#263644" opacity="0.36"/>
    <path d="M-52 50 L-26 6 L0 44 L26 8 L52 50 V134 H-52 Z" fill="#1f2b35"/>
    <ellipse cx="0" cy="138" rx="52" ry="34" fill="#1f2b35"/>
    <circle cx="-18" cy="124" r="4" fill="#f7ecd5" opacity="0.9"/>
    <circle cx="18" cy="124" r="4" fill="#f7ecd5" opacity="0.9"/>
  </g>

  <g transform="translate(1282 640) scale(0.88)">
    <ellipse cx="0" cy="158" rx="82" ry="58" fill="#263644" opacity="0.28"/>
    <path d="M-52 50 L-26 6 L0 44 L26 8 L52 50 V134 H-52 Z" fill="#e0b98f"/>
    <ellipse cx="0" cy="138" rx="52" ry="34" fill="#e0b98f"/>
    <circle cx="-18" cy="124" r="4" fill="#654530" opacity="0.9"/>
    <circle cx="18" cy="124" r="4" fill="#654530" opacity="0.9"/>
  </g>

  <g transform="translate(140 700) scale(0.68)">
    <ellipse cx="0" cy="158" rx="82" ry="58" fill="#263644" opacity="0.2"/>
    <path d="M-52 50 L-26 6 L0 44 L26 8 L52 50 V134 H-52 Z" fill="#80958b"/>
    <ellipse cx="0" cy="138" rx="52" ry="34" fill="#80958b"/>
    <circle cx="-18" cy="124" r="4" fill="#f5efe4" opacity="0.9"/>
    <circle cx="18" cy="124" r="4" fill="#f5efe4" opacity="0.9"/>
  </g>

  <circle cx="1185" cy="640" r="14" fill="#cf885e"/>
  <rect x="1210" y="625" width="12" height="74" rx="6" fill="#4c6975"/>
  <circle cx="1216" cy="617" r="18" fill="#f2cf97"/>

  <rect x="420" y="604" width="180" height="32" rx="16" fill="#2d4254" opacity="0.24"/>
  <rect x="440" y="612" width="78" height="16" rx="8" fill="#f0dcb7" opacity="0.78"/>
  <rect x="530" y="612" width="50" height="16" rx="8" fill="#96b1a5" opacity="0.62"/>
</svg>